<svg width="267" height="30" viewBox="0 0 267 30" fill="none" xmlns="http://www.w3.org/2000/svg">
<path d="M204.043 7.79444H195.734V29.1313H187.586V7.79444H179.277V0.575195H204.043V7.79444Z" fill="white"/>
<path d="M205.8 0.575195H213.789V29.1313H205.8V0.575195Z" fill="white"/>
<path d="M242.868 15.0137C242.868 23.4413 238.307 29.1313 228.169 29.1313H215.866V0.575195H228.169C238.307 0.575195 242.868 6.58594 242.868 15.0137ZM234.56 15.0137C234.56 9.4353 231.626 7.15273 227.849 7.15273H223.855V22.5538H227.849C231.626 22.5538 234.56 20.5921 234.56 15.0137Z" fill="white"/>
<path d="M251.975 7.79444V11.4843H265.236V18.2222H251.975V21.9121H266.355V29.1313H243.986V0.575195H266.355V7.79444H251.975Z" fill="white"/>
<path d="M11.1843 19.7326H7.98878V29.1978H0V0.641693H13.5809C20.1094 0.641693 24.4457 3.9669 24.4457 9.78608C24.4457 13.7591 22.3571 16.5633 19.0133 17.9679L25.5641 29.1978H16.6167L11.1843 19.7326ZM7.98878 13.3155H12.9418C15.0514 13.3155 16.6167 12.0734 16.6167 10.1069C16.6167 8.14042 15.0514 6.89838 12.9418 6.89838H7.98878V13.3155Z" fill="white"/>
<path d="M25.5645 18.2887V0.641693H33.713V18.2887C33.713 21.3321 35.587 22.7807 38.5063 22.7807C41.426 22.7807 43.1398 21.3321 43.1398 18.2887V0.641693H51.1285V18.2887C51.1285 26.017 46.0656 29.6791 38.5063 29.6791C31.3077 29.6791 25.5645 26.017 25.5645 18.2887Z" fill="white"/>
<path d="M106.73 0.641693H114.719V29.1978H106.73V0.641693Z" fill="white"/>
<path d="M142.36 0.641693V29.1978H134.052L127.98 19.0909C126.512 16.5625 125.496 14.3198 124.305 11.8716C124.464 16.1259 124.305 20.0506 124.305 24.5454V29.1978H116.796V0.641693H125.104L131.176 10.7486C132.327 12.7151 133.621 15.4796 134.851 17.9679C134.692 13.7139 134.851 9.7889 134.851 5.2941V0.641693H142.36Z" fill="white"/>
<path d="M172.558 12.6738V29.1979H167.125L166.167 25.508C164.334 28.4251 161.204 29.6791 157.379 29.6791C149.131 29.6791 143.479 24.1904 143.479 15.0802C143.479 5.96995 148.934 0 158.178 0C165.748 0 171.321 3.95462 172.238 10.4278H163.93C163.172 8.27008 161.286 6.89839 158.178 6.89839C154.074 6.89839 151.787 10.0454 151.787 15.0802C151.787 20.1148 154.354 22.7807 158.817 22.7807C161.607 22.7807 163.652 21.2474 164.249 18.77H158.977V12.6738H172.558Z" fill="white"/>
<path d="M97.1434 0.962581V19.8931L86.5983 2.88771C85.8773 1.76507 84.648 0.780255 83.4027 0.32087C82.1575 -0.138514 80.9967 -0.0678283 79.7279 0.32087C78.4575 0.695294 77.3239 1.49688 76.5324 2.56686C75.7409 3.63683 75.0887 5.08206 75.0944 6.41713V19.8931L64.3894 2.88771C63.6685 1.76507 62.7588 0.780255 61.5135 0.32087C60.2682 -0.138514 58.7879 -0.0678283 57.5191 0.32087C56.2487 0.695294 55.1151 1.49688 54.3236 2.56686C53.5321 3.63683 53.1994 5.08206 53.2052 6.41713V29.5187H60.3951V10.107L71.1 27.1123C71.6535 27.9744 72.4423 28.7071 73.3369 29.1979C74.2315 29.6886 75.1946 29.9998 76.2128 30C76.8165 29.9995 77.3921 29.8539 77.9704 29.6792C79.2407 29.3047 80.3744 28.5032 81.1659 27.4332C81.9574 26.3631 82.6096 25.0784 82.6039 23.7433V10.107L93.1491 27.1123C93.7024 27.9746 94.3317 28.707 95.2261 29.1979C96.1206 29.6888 97.4034 29.9998 98.4216 30C99.0253 29.9995 99.4412 29.8537 100.019 29.6792C101.29 29.3047 102.423 28.5032 103.215 27.4332C104.006 26.3631 104.339 25.0784 104.333 23.7433V0.962581H97.1434Z" fill="#BBFF00"/>
</svg>
